# xmcd
#
# Track frame offsets:
#	150
#	26967
#	47732
#	70347
#	90520
#	111895
#	133680
#	158600
#	174012
#	196397
#
# Disc length: 2889 seconds
#
# Revision: 0
# Processed by: cddbd v1.4PL0 Copyright (c) Steve Scherf et al.
# Submitted via: EasyCDDAExtractor 4.6.0.1
#
DISCID=7f0b470a
DTITLE=Emberek - Tábortûz
DYEAR=1997
DGENRE=Blues
TTITLE0=Tábortûz
TTITLE1=A föld felett
TTITLE2=Szeress úgy mint én
TTITLE3=Ha varázsló lennék
TTITLE4=Arcok a térrõl
TTITLE5=A szerelem földjén
TTITLE6=Szabad a szívem
TTITLE7=Túl késõ
TTITLE8=Kulcs a lábtörlõ alatt
TTITLE9=Csak egy nap a világ
EXTD=
EXTT0=
EXTT1=
EXTT2=
EXTT3=
EXTT4=
EXTT5=
EXTT6=
EXTT7=
EXTT8=
EXTT9=
PLAYORDER=
